<svg width="49" height="48" viewBox="0 0 49 48" fill="none" xmlns="http://www.w3.org/2000/svg">
<path d="M45.6667 34.5H44.1667V10.8562L45.9799 10.4662C46.1767 10.4293 46.3641 10.3534 46.531 10.2429C46.698 10.1325 46.8412 9.98967 46.9521 9.82299C47.063 9.65631 47.1395 9.46911 47.1769 9.27243C47.2144 9.07574 47.212 8.87355 47.1701 8.67778C47.1282 8.482 47.0475 8.2966 46.9328 8.13251C46.818 7.96841 46.6716 7.82895 46.5022 7.72233C46.3327 7.6157 46.1436 7.54409 45.946 7.5117C45.7484 7.47931 45.5464 7.48681 45.3517 7.53374L3.35175 16.5337C2.98992 16.6118 2.66974 16.8209 2.45279 17.1208C2.23584 17.4208 2.13745 17.7903 2.17654 18.1584C2.21562 18.5265 2.38943 18.8671 2.66453 19.1148C2.93963 19.3624 3.29659 19.4996 3.66675 19.5C3.77326 19.4998 3.87946 19.4885 3.98362 19.4662L5.16675 19.2131V34.5H3.66675C3.26892 34.5 2.88739 34.658 2.60609 34.9393C2.32478 35.2206 2.16675 35.6022 2.16675 36C2.16675 36.3978 2.32478 36.7793 2.60609 37.0606C2.88739 37.342 3.26892 37.5 3.66675 37.5H45.6667C46.0646 37.5 46.4461 37.342 46.7274 37.0606C47.0087 36.7793 47.1667 36.3978 47.1667 36C47.1667 35.6022 47.0087 35.2206 46.7274 34.9393C46.4461 34.658 46.0646 34.5 45.6667 34.5ZM8.16675 18.5625L41.1667 11.4994V34.5H36.6667V24C36.6667 23.6022 36.5087 23.2206 36.2274 22.9393C35.9461 22.658 35.5646 22.5 35.1667 22.5H14.1667C13.7689 22.5 13.3874 22.658 13.1061 22.9393C12.8248 23.2206 12.6667 23.6022 12.6667 24V34.5H8.16675V18.5625ZM33.6667 28.5H15.6667V25.5H33.6667V28.5ZM15.6667 31.5H33.6667V34.5H15.6667V31.5Z" fill="#1D2A67"/>
</svg>
